<svg width="185" height="186" viewBox="0 0 185 186" fill="none" xmlns="http://www.w3.org/2000/svg">
<path d="M159.345 0H25.4951C11.4146 0 0 11.4862 0 25.6552V160.345C0 174.514 11.4146 186 25.4951 186H159.345C173.425 186 184.84 174.514 184.84 160.345V25.6552C184.84 11.4862 173.425 0 159.345 0Z" fill="#38FDCE"/>
<path d="M117.374 58.598C108.649 62.4303 101.627 69.4903 97.7854 78.2833C96.6179 80.9525 92.8968 80.9525 91.7293 78.2833C87.8875 69.4903 80.8653 62.4303 72.1407 58.598C69.4951 57.4349 69.4951 53.6375 72.1407 52.4744C80.8653 48.642 87.8875 41.582 91.7293 32.7891C92.8968 30.1198 96.6179 30.1198 97.7854 32.7891C101.627 41.582 108.649 48.642 117.374 52.4744C120.02 53.6375 120.02 57.4349 117.374 58.598Z" fill="#13394F"/>
<g clip-path="url(#clip0_571_3196)">
<path d="M112.369 145.025C112.369 145.337 112.358 145.648 112.336 145.959C111.84 153.884 105.043 160.168 96.7254 160.168C91.2583 160.168 86.4508 157.456 83.6546 153.351C83.0604 152.723 82.5426 152.016 82.112 151.251L80.9565 149.204L79.8009 147.146L68.011 126.195L54.6513 149.668C52.6891 153.119 49.3914 155.673 45.4832 156.765C44.9109 156.923 44.344 157.055 43.7826 157.15C42.8669 157.308 41.9675 157.382 41.0845 157.382C40.2015 157.382 39.4111 157.314 38.6044 157.176C28.8804 155.588 22.394 144.814 27.7848 135.344L50.6015 95.2555L56.9134 84.1651C61.9825 75.2589 75.2114 75.2906 80.237 84.2178L86.0365 94.5274L98.982 117.537L109.649 136.489L110.761 138.467C110.799 138.525 110.832 138.589 110.865 138.647C110.984 138.858 111.093 139.069 111.197 139.28C111.955 141.047 112.369 142.989 112.369 145.025Z" fill="#13394F"/>
<path d="M160.798 156.51L135.229 156.652C133.55 156.663 132.002 155.776 131.201 154.352L121.003 136.223L108.619 114.211C106.913 111.182 106.924 107.521 108.641 104.503L119.64 85.1816C121.526 81.8682 126.443 81.8787 128.312 85.2027L152.115 127.502L162.319 145.63L164.772 149.994C166.418 152.922 164.243 156.494 160.798 156.51Z" fill="#13394F"/>
</g>
<defs>
<clipPath id="clip0_571_3196">
<rect width="139.5" height="82.6667" fill="white" transform="translate(25.8333 77.5)"/>
</clipPath>
</defs>
</svg>
